<?xml version="1.0" encoding="UTF-8" standalone="no"?>
<!DOCTYPE svg PUBLIC "-//W3C//DTD SVG 1.1//EN" "http://www.w3.org/Graphics/SVG/1.1/DTD/svg11.dtd">
<svg width="100%" height="100%" viewBox="0 0 811 686" version="1.1" xmlns="http://www.w3.org/2000/svg" xmlns:xlink="http://www.w3.org/1999/xlink" xml:space="preserve" xmlns:serif="http://www.serif.com/" style="fill-rule:evenodd;clip-rule:evenodd;stroke-linejoin:round;stroke-miterlimit:2;">
    <g id="Background" transform="matrix(1.375,0,0,1.375,-299.331662,-55.034803)">
        <path d="M489.403,457.795C486.829,457.217 486.84,457.24 486.623,457.171C482.61,455.904 483.534,454.669 480.97,444.402C480.632,443.048 478.844,418.72 478.68,416.485C478.29,411.17 479.066,411.258 481.082,406.334C482.989,401.678 484.637,399.369 483.385,398.86C482.871,398.651 480.922,399.827 480.725,399.946C478.295,401.412 472.193,400.883 470.543,400.352C455.929,395.66 461.313,385.137 458.393,384.872C457.817,384.819 447.723,388.665 439.54,389.766C423.5,391.924 406.637,385.962 401.958,379.188C400.088,376.479 398.759,378.526 395.256,375.826C389.407,371.316 386.192,365.659 384.695,363.383C382.18,359.559 382.784,358.174 379.493,358.394C368.008,359.163 365.428,353.872 362.096,349.862C360.915,348.44 357.389,348.729 356.685,349.659C356.243,350.244 356.023,350.985 355.544,351.54C354.049,353.274 350.137,352.142 348.472,353.471C346.802,354.804 347.564,356.727 340.495,357.004C325.09,357.61 311.766,350.487 306.779,346.149C303.832,343.585 306.109,341.514 303.473,340.838C301.73,340.391 298.5,343.085 291.719,327.408C280.234,300.855 297.321,275.705 302.56,274.74C304.487,274.385 304.843,274.373 305.051,272.431C305.532,267.953 312.721,265.053 318.313,262.188C319.562,261.548 320.142,261.906 320.16,260.482C320.163,260.243 320.365,259.947 320.207,259.768C319.978,259.508 319.796,259.776 316.59,257.374C298.081,243.51 297.678,243.809 296.54,241.478C294.74,237.788 292.795,240.096 292.804,241.468C292.822,244.418 292.544,244.424 287.625,253.565C282.759,262.609 281.587,265.481 279.236,267.086C276.522,268.937 275.02,266.653 272.571,270.549C270.455,273.914 267.241,273.575 266.437,274.447C265.407,275.565 266.289,278.225 266.392,278.536C267.69,282.445 267.482,282.486 268.687,286.446C271.487,295.647 271.318,295.682 271.601,296.467C275.537,307.38 275.146,308.402 269.696,313.704C257.158,325.902 257.109,325.878 256.385,326.225C254.874,326.949 248.893,326.475 247.399,325.633C246.505,325.129 244.797,324.166 251.4,313.434C253.414,310.16 260.367,309.671 257.802,304.358C254.483,297.482 253.654,295.87 252.78,295.137C251.682,294.215 251.553,294.533 249.369,293.961C244.745,292.75 244.833,289.939 240.421,291.225C231.807,293.736 231.358,293.964 230.719,296.555C229.674,300.793 230.049,300.852 230.802,303.418C231.465,305.678 229.376,310.28 228.838,311.638C228.03,313.677 227.298,317.946 224.707,317.036C224.264,316.881 218.304,310.087 217.798,308.423C217.294,306.766 218.785,287.194 219.419,285.469C220.52,282.473 235.065,275.504 235.391,275.315C245.359,269.517 245.534,269.862 246.35,269.282C249.554,267.007 252.611,267.645 250.545,263.475C248.391,259.129 250.781,259.051 251.01,256.453C251.284,253.353 246.702,252.83 250.906,244.72C252.076,242.464 263.861,219.736 265.663,216.597C267.597,213.228 270.873,215.236 272.219,214.174C272.667,213.82 277.156,202.577 290.516,203.164C298.719,203.524 303.914,210.141 304.666,211.394C305.873,213.406 306.811,216.185 306.878,216.325C308.102,218.862 309.029,216.81 311.567,217.145C313.832,217.443 316.787,219.455 317.339,219.789C319.229,220.929 337.782,231.755 339.449,232.589C349.537,237.631 352.527,240.534 353.266,239.402C353.569,238.939 352.178,236.944 352.045,236.752C351.953,236.621 351.831,236.512 351.74,236.38C347.677,230.488 341.977,213.618 341.288,211.578C339.166,205.296 340.073,202.484 339.801,201.414C339.603,200.634 339.392,199.807 333.144,193.873C330.408,191.276 329.975,192.677 328.44,193.338C325.029,194.807 312.178,189.552 306.334,185.763C294.569,178.137 296.104,174.719 295.987,174.278C295.543,172.605 293.111,174.231 290.527,169.484C285.692,160.604 285.765,151.147 285.778,149.504C285.826,143.309 287.317,143.749 288.161,142.233C289.217,140.334 286.077,138.976 291.129,131.232C299.357,118.619 304.203,117.665 309.569,113.58C310.757,112.676 310.635,112.383 310.626,93.5C310.622,87.131 309.363,79.416 317.511,78.617C318.671,78.504 354.335,78.532 355.498,78.581C359.381,78.743 360.137,80.748 377.285,97.722C380.864,101.263 381.005,101.469 381.06,106.502C381.351,132.886 381.149,156.178 381.112,160.498C381.006,172.685 372.127,168.905 360.468,169.379C359.381,169.424 359.074,169.436 359.146,170.51C359.222,171.638 360.109,171.137 362.204,174.667C364.775,178.999 363.238,181.127 366.826,188.359C367.67,190.06 369.225,190.334 370.367,191.614C372.455,193.957 377.452,212.659 384.663,222.383C387.762,226.562 385.959,228.073 388.6,229.075C390.504,229.797 390.521,229.704 392.27,230.845C397.377,234.177 399.797,234.27 402.285,235.852C404.376,237.182 404.537,236.651 406.641,235.983C411.047,234.584 425.85,239.957 433.782,220.609C436.096,214.966 437.742,214.481 438.085,214.113C439.635,212.449 437.834,212.453 431.257,206.788C416.796,194.332 416.232,184.943 414.104,174.587C413.397,171.144 412.025,172.266 406.616,169.289C392.628,161.591 392.301,138.551 399.674,128.632C403.216,123.866 405.885,124.057 405.883,120.498C405.873,105.754 405.83,105.78 405.832,104.5C405.844,91.753 406.066,91.353 404.548,90.431C390.549,81.935 398.291,67.683 405.42,65.282C420.983,60.039 430.521,81.913 416.686,89.844C414.041,91.36 414.466,91.984 414.47,99.5C414.478,117.366 413.815,117.825 414.733,118.095C416.643,118.658 417.097,113.759 417.681,111.55C418.858,107.103 422.822,97.338 423.258,96.389C427.948,86.18 434.07,78.663 435.21,77.264C437.394,74.583 450.662,58.292 468.717,49.941C479.688,44.866 484.119,43.906 485.524,43.602C493.234,41.933 495.456,39.894 514.504,40.032C532.915,40.165 544.233,44.709 553.393,48.738C562.642,52.808 570.626,58.839 572.566,60.421C585.26,70.773 591.463,78.523 598.027,89.805C603.318,98.901 604.223,103.256 605.169,105.631C608.61,114.274 607.647,117.825 609.566,117.776C610.786,117.745 610.088,116.945 610.176,97.501C610.2,92.109 610.698,91.47 607.515,89.478C599.098,84.209 599.836,69.839 609.546,65.6C622.085,60.124 634.374,75.464 625.021,87.106C622.015,90.848 619.132,88.991 619.097,93.496C619.081,95.655 618.897,119.653 618.927,120.483C619.048,123.764 621.351,124.192 624.399,127.591C629.403,133.174 630.505,142.835 629.793,149.531C627.717,169.051 612.638,171.115 611.553,172.539C610.208,174.304 611,189.399 598.456,202.457C588.844,212.463 584.209,211.88 587.378,214.621C589.988,216.878 590.123,219.099 593.998,226.209C596.354,230.533 603.299,235.836 610.505,235.687C616.289,235.567 616.327,235.485 619.427,236.653C621.294,237.356 621.777,236.224 623.467,235.431C630.18,232.281 630.105,232.192 636.644,228.751C638.299,227.88 637.01,226.945 639.871,222.769C642.942,218.287 642.845,218.249 645.319,213.399C651.729,200.829 651.09,194.547 656.311,190.249C659.646,187.504 660.206,182.243 660.288,181.477C660.93,175.445 665.519,170.575 666.764,169.787C668.787,168.507 669.528,168.685 669.044,167.642C668.674,166.844 668.492,167.009 667.631,167.106C666.048,167.284 661.071,167.301 660.5,167.303C645.028,167.357 640.696,168.642 640.691,158.5C640.678,131.073 640.979,127.766 640.203,126.709C638.605,124.535 638.132,124.602 638.14,120.492C638.166,107.383 637.221,103.22 643.292,100.061C647.265,97.993 661.092,99.716 663.664,98.937C665.465,98.391 664.188,97.219 666.173,95.162C668.412,92.84 666.935,89.85 668.972,86.829C672.955,80.921 678.83,81.808 682.499,81.812C702.677,81.835 702.865,81.565 705.64,83.253C708.779,85.162 710.605,87.046 710.857,91.479C711.073,95.291 712.103,94.831 713.171,95.806C713.572,96.172 714.41,98.349 714.536,98.467C716.269,100.085 731.833,98.003 735.375,99.758C741.085,102.587 740.952,106.767 740.807,121.505C740.764,125.816 738.623,125.344 738.519,128.501C737.869,148.189 741.292,159.083 734.798,171.638C731.062,178.862 728.075,179.018 727.417,179.327C726.042,179.974 726.104,181.46 724.277,183.26C721.523,185.974 713.586,189.866 711.558,190.651C696.765,196.376 695.225,193.061 694.403,192.721C692.893,192.096 691.679,193.824 687.014,199.057C685.615,200.626 684.951,200.464 685.222,202.561C685.674,206.063 684.887,205.979 684.116,209.412C681.981,218.916 674.268,234.991 672.283,237.439C672.187,237.557 669.741,240.912 673.525,238.874C676.467,237.29 676.698,237.729 702.623,222.727C712.216,217.176 712.346,216.872 715.513,217.457C717.443,217.813 717.411,217.197 718.083,215.343C720.674,208.19 727.773,203.429 734.483,203.138C747.31,202.582 752.064,212.999 752.532,213.473C754.835,215.806 756.769,212.863 759.188,216.678C759.571,217.282 761.595,220.474 763.524,224.488C766.98,231.682 767.7,232.352 770.274,237.615C773.959,245.147 777.495,248.371 775.121,253.326C773.2,257.337 774.994,257.444 775.508,260.498C776.033,263.614 771.296,265.646 776.699,268.022C779.634,269.313 784.566,272.542 796.699,279.129C805.606,283.965 805.849,284.564 806.105,289.527C806.921,305.372 808.912,307.02 805.744,310.707C802.684,314.271 799.033,321.132 796.581,313.473C795.469,309.998 795.52,310.016 794.251,306.601C792.838,302.793 795.249,302.73 794.693,299.465C793.611,293.12 792.118,293.372 787.377,291.938C782.509,290.466 782.296,290.644 779.398,292.328C774.357,295.259 772.795,293.088 770.901,296.725C770.572,297.357 767.162,303.903 766.827,304.647C765.123,308.432 770.024,310.377 772.184,311.929C774.551,313.629 777.563,321.069 777.695,321.434C779.179,325.549 777.877,326.305 773.503,326.553C769.097,326.802 768.255,326.592 766.376,324.618C761.316,319.3 754.796,313.262 754.759,313.226C747.712,306.318 751.306,304.834 752.812,298.567C756.319,283.976 759.4,280.113 758.759,275.46C758.314,272.229 755.475,274.683 752.93,271.19C752.615,270.758 752.382,270.27 752.062,269.842C749.984,267.063 747.954,269.068 744.696,266.26C742.166,264.078 735.959,250.292 733.763,246.367C731.363,242.077 733.352,240.483 731.361,239.915C728.599,239.126 728.422,241.682 728.064,242.207C726.754,244.126 711.355,254.93 709.86,255.979C704.375,259.828 704.305,259.895 704.27,260.468C704.18,261.93 706.54,262.022 708.681,263.106C720.962,269.324 719.708,271.208 720.149,272.61C720.561,273.919 721.57,274.091 722.49,274.521C726.628,276.457 734.305,287.22 736.235,301.541C739.095,322.758 728.811,335.593 727.524,337.517C724.5,342.039 721.289,340.106 720.327,342.443C719.497,344.457 719.544,344.493 717.918,345.972C710.127,353.055 696.933,356.569 690.52,356.855C680.871,357.286 679.193,356.779 676.903,354.146C675.285,352.286 674.974,352.764 672.495,352.616C668.246,352.362 669.522,349.542 666.44,348.958C661.52,348.024 661.675,352.964 657.515,355.521C650.956,359.552 646.572,358.168 644.486,358.247C641.91,358.345 643.335,360.214 635.676,369.638C628.512,378.452 625.287,377.521 624.561,377.797C622.434,378.605 622.625,382.62 611.604,386.783C606.522,388.702 598.469,390.004 598.455,390.005C582.274,391.385 568.149,385.222 567.565,385.113C565.097,384.649 565.072,387.66 564.954,388.558C563.124,402.51 548.366,400.807 546.49,400.718C544.407,400.619 542.501,398.649 541.551,398.814C541.477,398.827 540.854,399.511 540.85,399.583C540.835,399.838 542.871,404.586 544.044,406.749C546.846,411.915 546.415,412.159 545.775,421.519C544.378,441.959 544.204,442.772 543.815,444.582C541.876,453.613 543.271,455.432 536.132,458.057C533.75,458.139 533.807,458.399 531.514,458.994C528.976,459.27 529.004,459.255 526.501,459.636C510.648,460.712 510.663,460.263 497.501,459.559C494.961,459.159 494.973,459.217 492.503,458.483C490.953,458.077 490.969,458.093 489.403,457.795ZM309.624,155.373C309.978,155.121 310.434,155.039 310.787,154.787C311.096,154.567 310.925,154.485 310.874,152.564C310.571,141.317 311,141.314 310.821,140.354C310.705,139.732 309.857,138.875 309.778,138.908C309.332,139.099 308.013,143.288 307.89,143.68C307.488,144.955 306.38,145.735 309.624,155.373ZM684.499,99.083C699.171,99.073 699.911,99.396 700.478,97.494C701.333,94.623 702.276,94.918 702.145,93.488C701.805,89.789 697.004,90.562 696.501,90.564C678.782,90.647 678.329,90.024 676.907,91.801C675.308,93.799 677.65,95.888 678.37,97.553C679.237,99.555 681.362,99.079 684.499,99.083ZM432.48,356.983C437.044,356.773 437.078,356.903 441.364,355.313C442.011,355.073 442.161,355.125 442.173,354.443C442.206,352.54 440.824,354.614 425.508,353.608C425.278,353.593 422.897,353.436 422.627,353.685C422.424,353.873 422.554,354.987 422.782,355.11C423.129,355.297 423.131,355.298 427.559,356.283C430.723,356.987 431.122,356.883 432.48,356.983ZM544.097,379.5C544.299,383.132 544.007,383.759 548.262,385.967C551.926,387.869 551.793,390.775 554.248,389.114C556.162,387.82 556.599,379.588 554.427,377.579C550.642,374.079 549.021,374.354 548.491,374.444C543.304,375.322 544.228,376.876 544.097,379.5ZM469.102,381.482C469.103,381.581 468.668,387.199 470.727,389.237C472.227,390.721 473.452,388.251 474.513,387.518C479.065,384.372 480.818,385.063 480.859,379.505C480.868,378.366 481.209,376.32 479.682,375.227C478.954,374.707 476.261,373.731 474.568,374.638C473.497,375.211 469.973,378.026 469.638,378.58C469.042,379.569 469.108,381.412 469.102,381.482ZM604.473,354.542L606.633,354.883C607.636,354.672 608.234,352.239 606.542,352.274C604.74,352.312 604.833,352.786 604.473,354.542ZM405.855,320.501C406.074,314.115 406.285,314.131 406.244,313.578C406.139,312.166 405.143,312.256 404.613,313.59C404.311,314.35 404.421,314.365 404.113,315.143C402.316,319.678 402.619,319.807 403.579,326.486C405.022,336.524 403.861,337.762 405.502,337.526C407.052,337.304 406.146,333.913 405.855,320.501ZM337.488,324.911C344.494,324.932 345.989,324.606 347.937,327.192C350.481,330.569 353.369,327.502 355.53,330.475C356.924,332.392 357.124,332.289 359.503,332.417C361.217,332.51 361.781,333.291 363.788,330.716C369.42,323.491 376.499,325.306 377.627,323.61C378.895,321.705 379.598,318.399 381.099,315.312C381.812,313.846 382.296,313.855 381.752,312.307C381.434,311.401 373.658,310.935 360.392,303.7C357.213,301.966 357.881,300.234 355.453,299.863C354.215,299.674 351.406,300.594 342.671,295.199C335.045,290.488 331.398,296.241 326.561,296.881C323.921,297.23 324.349,297.997 323.317,300.424C323.268,300.538 319.757,306.822 321.14,312.593C321.746,315.124 323.06,315.764 324.306,319.561C325.238,322.399 326.125,321.613 328.772,323.001C328.893,323.065 330.807,323.911 331.607,324.152C334.477,325.014 334.496,324.788 337.488,324.911ZM686.491,324.906C691.741,324.861 691.779,324.782 696.523,322.544C697.94,321.876 700.035,322.018 700.44,320.485C701.253,317.402 701.467,317.509 702.943,314.716C706.307,308.352 701.97,302.925 700.733,298.438C700.11,296.18 698.823,297.718 695.665,296.162C688.634,292.696 687.038,292.033 680.377,296.3C679.687,296.742 674.724,299.22 672.517,299.61C669.727,300.103 669.037,298.872 666.835,301.746C665.097,304.016 664.16,303.994 658.608,306.708C657.992,307.009 657.484,307.257 650.65,309.881C646.749,311.378 642.863,311.213 642.665,312.557C642.497,313.704 644.814,317.263 646.255,321.576C647.613,325.642 649.173,323.852 653.526,325.43C661.935,328.479 660.106,331.643 663.526,332.4C666.948,333.157 668.105,331.699 668.35,331.39C671.44,327.495 672.554,329.67 675.544,328.61C676.899,328.13 677.233,325.278 681.461,325.032C683.151,324.934 686.088,324.909 686.491,324.906ZM690.539,169.848C696.672,168.615 703.06,169.419 704.053,168.116C704.192,167.933 704.775,166.686 701.478,166.844C701.08,166.863 700.149,166.908 696.505,167.035C692.379,167.179 686.859,167.035 686.547,167.53C686.35,167.842 685.709,169.11 690.539,169.848Z" style="fill:rgb(7,11,13);"/>
        <path d="M439.196,217.171C443.173,222.555 444.842,222.817 453.348,226.804C463.752,231.682 469.982,233.195 471.487,233.56C492.074,238.56 504.6,239.516 521.47,239.061C529.214,238.852 552.471,235.937 565.66,229.827C573.186,226.34 573.341,226.703 580.611,222.675C583.891,220.858 584.342,219.381 585.5,218.778C585.857,218.592 586.287,218.579 586.644,218.393C586.957,219.063 587.009,219.024 587.608,220.455C588.904,223.556 589.137,223.405 590.748,226.328C590.976,226.731 592.67,229.718 593.889,231.179C601.408,240.186 614.417,238.691 615.486,238.741C618.554,238.885 618.83,242.04 619.361,245.516C620.954,255.937 624.181,268.57 623.445,270.477C622.742,272.296 614.893,273.341 611.488,272.583C608.106,271.83 601.505,266.697 601.402,266.609C588.251,255.37 589.206,250.392 586.598,250.873C586.057,250.972 583.994,251.731 588.556,257.455C596.476,267.391 600.896,269.948 603.848,272.02C607.095,274.299 622.509,281.839 638.596,277.911C645.9,276.127 647.907,275.195 648.671,274.84C653.52,272.587 654.763,272.436 655.75,275.423C659.128,285.65 659.28,285.588 659.554,286.483C662.966,297.633 663.431,297.47 663.693,298.448C664.566,301.708 660.021,302.349 657.651,303.753C656.04,304.706 643.293,309.938 640.425,308.621C639.912,308.385 639.94,308.332 635.957,303.157C630.855,296.526 629.856,297.576 628.201,295.809C626.848,294.365 628.793,292.677 623.416,289.668C622.636,289.231 617.092,286.128 613.498,284.503C606.715,281.436 588.07,271.127 585.489,270.541C581.014,269.525 570.364,278.159 567.417,277.958C564.947,277.789 559.347,267.373 557.153,264.798C552.256,259.05 552.679,267.876 552.745,269.481C553.235,281.52 554.866,283.236 554.465,284.489C553.835,286.464 542.64,289.519 541.247,293.425C540.762,294.787 540.822,294.813 540.855,311.5C540.906,337.356 540.703,337.379 541.17,339.576C541.871,342.872 543.079,342.043 561.338,351.784C574.432,358.77 574.518,358.589 575.641,359.223C584.952,364.478 585.599,362.926 586.514,362.534C592.352,360.032 592.373,360.143 598.559,358.747C603.863,357.55 604.684,356.936 606.774,360.35C610.781,366.896 611.063,366.683 614.249,371.655C617.823,377.233 620.538,377.836 617.358,380.314C608.886,386.916 592.277,387.988 584.483,386.601C569.907,384.007 562.655,379.359 558.445,376.588C556.462,375.283 545.311,367.944 537.658,355.417C529.208,341.586 525.683,329.125 525.47,328.51C523.963,324.141 524.336,324.055 523.301,320.561C518.45,304.186 517.392,283.836 515.273,276.582C514.16,272.775 511.295,273.963 510.692,274.662C509.315,276.257 508.6,277.084 505.729,300.533C503.35,319.953 495.964,340.348 490.179,350.306C487.501,354.915 485.539,358.436 479.045,366.11C477.868,367.501 470.811,373.943 467.698,375.886C458.735,381.481 453.954,383.252 449.507,384.521C440.335,387.14 436.643,387.21 430.506,387.12C420.756,386.977 403.169,381.5 407.284,376.344C409.982,372.963 409.634,372.746 412.224,369.302C419.614,359.472 419.153,357.007 422.419,357.837C429.221,359.564 435.413,362.781 447.163,355.017C450.092,353.081 455.15,354.223 463.504,354.003C475.765,353.679 482.025,355.733 485.176,347.385C485.757,345.846 491.712,325.194 491.842,324.568C493.017,318.893 496.278,313.614 493.978,309.259C491.49,304.547 487.789,305.278 485.523,305.117C482.501,304.903 483.659,303.52 483.099,300.566C481.593,292.62 472.366,294.165 470.522,294.061C468.038,293.92 468.211,293.01 468.835,290.595C470.512,284.104 470.501,284.118 471.484,277.498C471.648,276.396 473.282,265.391 471.422,263.572C468.68,260.89 465.494,269.48 457.11,279.166C454.494,282.189 446.93,288.677 444.44,290.413C440.283,293.311 439.312,287.293 434.455,285.625C432.332,284.896 414.741,284.887 412.524,285.573C403.375,288.402 406.236,300.333 406.077,301.386C406.019,301.772 405.063,302.397 404.753,302.059C404.717,302.02 402.347,297.023 398.521,296.381C397.232,296.165 393.757,295.582 385.978,306.848C385.047,308.197 384.996,310.158 377.41,307.754C376.421,307.441 367.855,304.061 367.757,304.01C361.611,300.817 360.751,300.906 361.083,298.443C361.318,296.703 368.808,275.461 369.285,274.388C369.459,273.996 370.221,272.281 374.642,274.178C392.947,282.034 404.368,278.501 412.416,276.191C421.991,273.443 432.995,262.929 438.355,254.413C440.04,251.734 438.848,250.349 437.309,251.076C436.539,251.441 427.911,266.51 414.354,272.072C411.971,273.05 405.507,272.583 402.608,271.262C399.745,269.957 401.788,268.156 406.125,242.481C406.851,242.506 406.776,242.779 407.5,242.804C408.008,242.822 407.946,242.578 408.463,242.562C409.14,242.542 409.813,242.676 410.49,242.714C421.419,243.333 425.051,240.116 426.487,239.477C429.469,238.15 429.217,237.81 431.425,235.432C438.447,227.866 435.459,225.717 434.983,224.861C437.363,221.144 436.616,220.729 439.196,217.171Z" style="fill:rgb(107,169,203);"/>
        <path d="M445.066,124.447C445.064,124.418 445.451,122.631 444.014,120.924C439.785,115.901 435.055,111.936 436.23,107.426C436.471,106.498 439.493,101.178 443.172,96.258C446.742,91.484 447.902,93.448 453.57,95.261C458.616,96.876 459.631,100.316 463.7,96.718C473.072,88.431 473.566,89.081 474.364,88.347C477.038,85.888 472.756,72.304 475.909,69.957C476.969,69.168 479.955,66.946 491.496,64.481C495.945,63.531 496.984,68.966 500.865,76.317C503.021,80.402 504.555,77.456 519.502,78.475C523.278,78.732 523.397,77.448 525.035,74.28C529.281,66.071 528.71,63.31 534.447,64.744C546.177,67.677 547.828,69.075 548.873,70.152C551.567,72.929 548.855,84.576 549.92,87.302C550.331,88.354 563.053,98.078 563.577,98.253C565.538,98.909 575.231,92.981 577.533,92.987C581.052,92.996 588.5,106.436 589.029,108.651C589.813,111.936 580.362,121.578 579.985,122.629C579.688,123.456 579.619,123.65 581.338,133.532C583.174,144.083 582.213,158.433 581.184,160.321C579.637,163.158 562.141,165.34 558.286,167.007C553.525,169.067 552.978,180.213 548.517,182.528C538.442,187.757 490.95,188.573 477.344,182.882C471.545,180.456 471.849,171.3 468.083,167.968C465.749,165.903 450.485,163.315 445.447,161.671C444.114,161.236 443.19,161.248 442.936,153.488C442.528,141.075 443.263,136.265 445.066,124.447Z" style="fill:rgb(179,184,187);"/>
        <path d="M493.542,189.017C508.581,189.851 513.291,190.899 538.467,188.203C555.619,186.366 553.726,179.803 557.455,172.474C559.455,168.543 560.568,169.844 568.536,167.609C573.151,166.315 587.254,163.903 602.599,156.716C606.859,154.721 609.686,151.763 609.194,156.453C608.798,160.225 611.016,187.13 594.378,202.367C583.954,211.912 574.943,214.832 572.331,216.182C571.243,216.745 555.046,222.821 545.549,223.931C542.436,224.295 536.324,225.691 516.499,226.485C510.308,226.734 494.639,225.97 485.482,224.628C448.349,219.186 432.282,206.239 423.906,194.217C421.465,190.713 416.281,179.782 415.774,159.489C415.691,156.145 415.363,154.37 416.224,154.042C417.495,153.559 417.459,154.122 421.645,156.193C426.344,158.519 426.325,158.552 438.381,162.793C443.464,164.582 452.213,166.343 460.476,168.588C463.195,169.327 466.348,168.955 467.579,172.467C468.297,174.516 470.453,183.135 475.534,185.428C480.955,187.873 483.928,187.864 493.542,189.017Z" style="fill:rgb(113,173,205);"/>
        <path d="M602.644,107.436C603.864,110.891 603.656,110.934 604.832,114.388C609.48,128.037 609.3,148.467 609.045,149.308C608.408,151.404 596.062,156.389 594.331,157.004C586.137,159.918 586.071,159.939 585.358,159.708C584.347,159.38 585.353,153.383 585.204,144.512C584.91,126.991 581.348,125.442 584.577,121.562C592.552,111.981 593.89,109.466 590.234,103.666C583.29,92.651 580.904,88.575 575.479,90.443C567.532,93.18 565.459,96.309 562.351,93.69C554.23,86.847 552.908,86.997 552.815,84.498C552.49,75.777 555.562,70.141 548.624,66.291C545.028,64.295 535.279,61.856 533.51,61.455C528.126,60.237 526.415,65.057 525.154,67.31C521.449,73.925 522.071,75.731 517.522,75.335C508.106,74.514 504.6,76.418 503.435,74.552C500.247,69.441 498.447,60.11 491.514,61.571C479.972,64.003 476.689,65.878 475.525,66.542C468.729,70.424 472.441,77.395 472.147,84.502C472.034,87.246 469.624,87.217 462.635,93.653C460.49,95.629 460.019,94.828 452.431,91.664C452.097,91.525 445.734,87.296 441.421,93.442C434.829,102.835 431.917,107.013 433.266,111.58C434.248,114.904 439.912,121.083 439.924,121.095C443.283,124.44 441.617,125.132 440.872,131.556C437.844,157.668 441.761,158.994 439.609,159.649C439.04,159.822 438.796,159.897 432.461,157.602C427.782,155.907 417.153,151.077 416.178,149.711C414.869,147.876 416.967,127.719 418.372,121.472C424.3,95.125 433.963,83.532 441.632,74.617C457.614,56.038 483.612,43.811 506.491,43.196C529.415,42.579 534.48,45.587 537.55,46.294C552.967,49.848 567.484,59.862 574.328,65.705C595.32,83.626 602.634,107.411 602.644,107.436Z" style="fill:rgb(117,174,205);"/>
        <path d="M378.07,145.492C378.09,163.987 378.627,165.127 375.41,166.163C374.041,166.604 360.453,166.287 339.5,166.43C319.354,166.567 319.312,166.648 317.688,166.01C312.432,163.947 313.475,162.42 313.566,150.501C313.698,133.32 313.04,132.918 314.973,130.925C315.668,130.207 321.934,125.743 317.698,117.397C316.676,115.382 314.91,113.654 314.621,113.37C313.141,111.921 313.382,111.585 313.591,87.499C313.651,80.603 316.644,81.513 332.5,81.477C341.018,81.459 341.003,81.483 344.5,81.477C353.657,81.462 355.421,80.945 355.524,83.498C355.8,90.391 352.879,102.622 363.522,103.285C370.983,103.75 377.068,102.565 377.767,104.351C378.296,105.703 378.082,105.76 378.049,122.493C378.026,134.016 378.081,133.98 378.07,145.492Z" style="fill:rgb(240,235,212);"/>
        <path d="M410.484,345.49C412.713,341.656 417.949,322.843 418.444,321.478C421.431,313.248 421.316,310.526 425.6,308.765C426.504,308.393 426.522,308.136 456.501,308.175C488.815,308.216 489.34,307.687 490.577,309.43C493.156,313.062 491.387,314.799 485.207,336.417C481.653,348.846 481.523,350.808 474.499,350.89C472.099,350.918 455.937,351.106 444.499,350.942C414.095,350.506 413.921,351.38 411.652,350.181C408.711,348.627 409.82,346.754 410.484,345.49Z" style="fill:rgb(249,214,103);"/>
        <path d="M483.069,431.509C482.124,420.724 482.024,420.531 481.849,417.474C481.439,410.294 483.046,410.577 486.532,401.512C488.415,396.616 489.02,394.873 491.524,395.37C497.505,396.559 497.488,396.506 503.533,397.219C506.492,397.568 505.934,398.577 506.16,401.534C506.412,404.838 508.966,408.492 512.477,408.186C519.36,407.586 518.449,400.567 518.45,400.499C518.514,396.803 519.832,397.288 523.533,396.975C533.201,396.155 533.441,394.685 535.466,395.559C536.188,395.87 536.527,396.017 539.679,404.429C542.472,411.883 543.684,411.695 543.128,416.462C542.321,423.371 541.734,432.723 541.533,434.504C540.735,441.588 541.91,443.24 537.419,444.067C526.898,446.005 517.283,446.656 515.522,446.775C505.597,447.447 486.096,443.711 485.496,443.509C483.877,442.963 483.469,442.634 483.069,431.509Z" style="fill:rgb(108,170,204);"/>
        <path d="M734.626,138.331C733.988,137.242 733.641,134.226 726.351,137.118C718.897,140.075 722.523,145.046 719.618,153.537C717.141,160.775 714.04,164.3 712.54,164.666C710.283,165.218 710.268,163.739 683.5,164.517C683.091,164.529 647.58,164.269 647.537,164.26C642.197,163.161 643.494,160.83 643.409,140.502C643.353,127.341 643.31,126.851 644.518,126.554C645.527,126.307 645.514,126.401 657.499,126.456C661.213,126.473 660.671,127.816 660.711,130.502C660.8,136.481 664.632,136.622 669.498,136.453C677.615,136.173 672.992,127.072 676.505,126.525C676.97,126.453 684.701,126.451 685.5,126.424C685.739,126.415 688.292,126.327 688.48,126.524C689.378,127.465 688.547,127.729 677.688,138.689C671.5,144.933 662.983,151.387 669.943,158.064C672.851,160.854 677.424,161.105 681.301,157.288C681.904,156.695 693.967,143.863 699.41,138.413C702.479,135.34 703.266,137.536 707.542,136.707C716.388,134.991 717.836,127.104 719.523,126.563C719.769,126.484 734.242,126.043 735.084,126.904C735.625,127.457 735.46,127.555 735.69,136.563C735.733,138.274 734.783,138.071 734.626,138.331Z" style="fill:rgb(94,137,157);"/>
        <path d="M717.164,227.687C719.612,232.25 719.3,232.442 722.639,236.376C725.511,239.758 725.563,240.168 724.561,241.559C724.236,242.01 703.099,257.007 701.379,258.33C697.85,261.045 697.229,258.267 683.472,259.189C676.289,259.671 659.998,265.154 656.862,268.789C655.16,270.763 654.397,269.125 649.374,271.184C634.53,277.269 625.973,276.018 623.214,275.915C618.778,275.749 623.552,274 623.704,273.945C625.589,273.254 625.805,273.497 626.944,271.821C628.609,269.371 630.675,271.942 636.584,269.728C646.595,265.977 649.349,263.517 656.502,257.502C659.084,255.331 658.192,251.984 660.406,251.225C665.452,249.495 664.208,247.645 668.697,244.793C673.676,241.63 674.17,242.612 685.299,236.125C686.412,235.476 686.504,235.67 699.333,228.225C712.089,220.822 712.201,220.437 713.365,220.932C714.815,221.548 714.366,222.009 717.164,227.687Z" style="fill:rgb(92,137,158);"/>
        <path d="M402.519,274.481L402.406,275.452C400.991,276.326 400.889,276.034 396.474,276.083C389.134,276.164 387.957,275.195 380.583,273.201C376.009,271.963 373.57,270.129 370.456,269.835C368.609,269.661 368.636,269.46 367.667,268.344C366.737,267.272 359.022,263.633 353.353,261.995C346.79,260.098 341.96,258.163 328.477,259.259C324.131,259.612 324.266,258.723 320.165,255.972C315.327,252.725 315.603,252.378 310.697,249.194C310.121,248.821 310.156,248.781 303.778,244.125C300,241.366 299.445,240.327 300.772,238.728C301.58,237.755 305.22,233.369 309.119,225.306C310.49,222.471 310.625,219.577 314.412,221.668C317.107,223.157 332.602,232.645 338.502,235.495C342.172,237.267 341.921,237.691 352.376,242.726C359.392,246.105 358.12,247.881 361.362,249.737C364.184,251.354 365.17,250.505 366.137,253.617C366.672,255.342 366.649,257.87 379.347,265.741C388.76,271.576 394.194,270.909 395.54,270.743C398.528,270.377 397.626,272.554 400.418,273.648C400.586,273.714 402.277,274.376 402.519,274.481Z" style="fill:rgb(92,137,158);"/>
        <path d="M489.403,457.795C490.969,458.093 490.953,458.077 492.503,458.483C492.828,461.756 492.179,462.738 491.551,468.501C490.297,479.998 495.504,492.144 497.525,492.385C497.913,492.431 499.458,492.615 500.364,488.423C500.492,487.83 500.453,487.183 500.719,486.638C501.405,485.232 502.199,486.51 502.264,486.615C502.791,487.463 501.279,491.818 506.268,501.628C509.223,507.437 511.5,513.778 514.172,510.271C514.941,509.263 521.938,498.492 522.768,488.569C523.652,486.586 524.088,486.67 524.277,486.706C524.735,486.794 524.043,487.225 525.302,489.611C526.612,492.093 526.253,492.689 527.488,492.673C528.767,492.655 529.79,489.339 530.982,486.715C533.384,481.43 534.584,469.068 532.868,462.412C532.786,462.091 532.627,461.786 532.598,461.457C532.563,461.06 532.841,460.628 532.679,460.265C532.623,460.138 532.593,460.171 531.514,458.994C533.807,458.399 533.75,458.139 536.132,458.057C536.618,459.012 536.862,458.882 537.391,460.533C537.92,462.183 539.171,464.192 539.82,466.413C542.799,476.609 541.961,484.004 541.788,485.532C539.883,502.356 533.524,509.85 532.715,512.618C532.664,512.79 532.004,515.049 530.614,513.415C530.487,513.265 530.527,513.242 530.163,511.618C528.331,503.454 527.211,503.471 526.497,503.481C525.123,503.501 526.243,504.875 524.782,512.562C524.11,516.094 519.531,527.803 517.703,530.621C515.333,534.277 513.361,540.432 511.45,537.548C505.449,528.49 503.975,523.777 503.569,522.478C498.95,507.703 499.539,505.729 499.352,504.567C499.235,503.844 499.199,503.721 498.474,503.708C497.409,503.69 497.632,504.172 495.779,508.624C494.321,512.129 494.656,513.614 493.513,513.646C492.135,513.685 491.967,511.534 490.766,509.364C490.385,508.677 488.735,505.698 486.761,500.402C484.352,493.94 483.706,487.628 483.59,486.493C483.426,484.892 482.471,475.556 485.387,466.462C487.635,459.451 487.894,459.549 489.403,457.795Z" style="fill:rgb(89,155,205);"/>
        <path d="M701.49,102.03C712.436,101.844 729.103,102.073 731.504,102.106C732.216,102.116 737.396,102.187 737.697,108.491C737.765,109.917 737.784,121.347 737.772,121.529C737.759,121.71 737.661,123.119 736.472,123.386C735.085,123.698 722.698,123.455 721.501,123.431C717.463,123.352 719.516,119.309 717.173,116.778C713.462,112.767 710.62,124.789 705.626,122.264C700.323,119.583 709.188,113.213 710.076,112.153C714.102,107.348 692.815,101.984 689.924,121.571C689.541,124.17 687.85,123.528 685.5,123.495C676.411,123.369 674.953,124.181 674.785,121.464C674.48,116.519 675.416,113.219 666.5,113.492C659.704,113.7 660.978,119.208 660.791,121.532C660.597,123.95 659.398,123.463 649.502,123.418C642.927,123.388 641.264,124.22 641.235,120.516C641.139,107.977 641.017,103.755 645.477,102.411C647.884,101.686 688.062,102.327 701.49,102.03Z" style="fill:rgb(96,138,158);"/>
        <path d="M583.039,358.347C582.526,359.372 582.578,359.416 582.485,359.452C581.63,359.784 578.671,357.902 578.369,357.71C576.911,356.783 547.236,341.893 544.769,340.181C543.237,339.119 543.537,336.491 543.524,332.499C543.515,329.618 543.407,296.777 543.446,296.486C543.725,294.379 544.69,295.426 546.527,296.456C550.894,298.903 557.163,301.805 557.563,302.452C558.676,304.251 557.536,312.343 558.35,314.558C559.134,316.693 567.358,320.738 568.433,320.33C569.872,319.784 569.365,313.432 569.412,310.491C569.434,309.138 569.242,308.439 570.531,308.799C570.925,308.909 580.66,313.985 581.538,314.442C583.654,315.546 582.969,318.122 582.968,329.5C582.967,339.806 583.017,339.787 583.039,358.347Z" style="fill:rgb(198,159,105);"/>
        <path d="M624.322,294.759C624.487,295.078 624.893,295.227 625.058,295.547C625.852,297.086 621.431,297.734 618.796,305.597C616.195,313.353 626.25,315.64 621.575,328.534C621.032,330.031 621.08,330.011 620.57,331.533C619.844,336.959 619.984,337.1 618.642,338.622C617.048,340.428 615.639,343.045 615.418,343.454C614.075,345.947 612.7,346.57 607.744,348.955C603.503,350.995 603.461,350.873 599.418,353.327C598.51,353.896 596.015,355.461 587.384,359.197C586.12,359.745 586.085,359.257 585.624,359.278C585.476,357.548 585.169,316.778 585.755,315.69C586.374,314.543 601.036,307.612 607.675,303.798C610.426,302.217 618.707,298.376 624.322,294.759Z" style="fill:rgb(193,156,103);"/>
        <path d="M490.733,355.631C501.642,336.055 501.906,329.873 504.298,322.428C505.709,318.034 505.346,317.96 506.469,313.491C508.635,304.868 511.209,280.56 511.808,279.778C513.07,278.131 513.502,281.298 513.528,281.491C513.67,282.533 515.049,292.637 515.27,294.522C516.416,304.325 517.364,307.486 518.333,313.524C518.84,316.689 522.972,331.93 524.924,336.283C529.992,347.589 529.8,347.656 530.295,348.611C535.376,358.406 538.551,360.375 534.562,360.815C526.082,361.749 522.293,362.137 517.494,362.421C515.33,362.55 508.616,362.947 490.451,360.708C487.535,360.349 488.747,358.648 490.733,355.631Z" style="fill:rgb(90,136,156);"/>
        <path d="M666.383,289.547C661.126,272.792 658.598,271.236 661.305,269.233C661.756,268.9 668.911,265.881 669.561,265.668C680.368,262.12 686.972,261.232 697.485,262.63C705.29,263.668 713.356,269.243 715.232,270.834C715.977,271.466 718.112,272.483 712.369,278.375C699.027,292.064 700.209,293.507 698.574,293.744C697.393,293.916 691.912,290.254 687.498,290.332C682.743,290.416 680.456,293.409 674.596,295.749C668.458,298.2 668.536,294.917 666.383,289.547Z" style="fill:rgb(107,169,202);"/>
        <path d="M363.148,276.363C355.748,294.275 357.246,297.429 352.527,296.391C346.142,294.988 341.658,289.302 335.503,290.515C328.189,291.955 327.655,295.598 324.714,292.313C323.528,290.989 318.04,284.393 314.959,281.077C308.815,274.465 308.766,274.241 308.598,273.466C307.608,268.903 323.965,263.208 325.588,262.859C337.429,260.311 351.535,263.971 356.606,266.267C363.527,269.399 364.746,269.571 364.535,271.503C364.438,272.394 363.273,275.978 363.148,276.363Z" style="fill:rgb(107,169,203);"/>
        <path d="M291.031,306.485C291.116,304.932 291.679,294.716 295.71,287.623C299.414,281.105 302.271,276.339 304.818,279.169C318.345,294.202 318.363,294.155 319.375,295.589C323.158,300.946 313.267,305.441 319.734,317.365C322.893,323.191 318.967,322.832 310.516,331.515C306.324,335.822 302.756,341.776 297.935,333.239C290.716,320.454 290.895,311.034 291.031,306.485Z" style="fill:rgb(109,170,204);"/>
        <path d="M717.423,334.577C712.227,329.24 708.073,325.574 707.227,324.827C703.975,321.957 702.867,321.515 704.995,317.757C710.387,308.232 704.552,301.473 704.405,298.505C704.334,297.076 704.291,296.209 715.318,284.332C720.442,278.812 720.346,277.721 722.475,278.555C724.716,279.432 744.403,304.944 726.089,334.235C721.969,340.825 718.904,336.14 717.423,334.577Z" style="fill:rgb(109,170,204);"/>
        <path d="M439.196,217.171C440.577,215.938 440.556,215.93 440.687,215.839C443.798,213.686 448.633,218.717 461.514,222.452C474.06,226.089 480.822,227.056 482.53,227.3C510,231.227 527.951,229.495 545.452,227.094C552.394,226.141 569.141,221.627 578.613,216.705C582.432,214.72 583.268,214.385 586.644,218.393C586.287,218.579 585.857,218.592 585.5,218.778C584.342,219.381 583.891,220.858 580.611,222.675C573.341,226.703 573.186,226.34 565.66,229.827C552.471,235.937 529.214,238.852 521.47,239.061C504.6,239.516 492.074,238.56 471.487,233.56C469.982,233.195 463.752,231.682 453.348,226.804C444.842,222.817 443.173,222.555 439.196,217.171Z" style="fill:rgb(87,136,157);"/>
        <path d="M661.611,194.388C663.267,195.742 663.295,195.658 664.906,197.073C670.717,202.177 680.368,202.867 681.415,204.556C682.955,207.04 673.743,233.394 663.388,245.409C659.4,250.036 658.331,246.682 651.901,240.118C647.444,235.567 647.578,235.49 643.204,230.904C643.654,230.335 644.415,230.068 644.866,229.5C645.025,229.299 644.866,228.982 644.925,228.733C645.162,227.726 647.627,222.68 650.167,218.336C651.314,216.374 657.245,202.441 657.57,201.52C659.708,195.455 660.389,195.783 661.611,194.388Z" style="fill:rgb(108,170,203);"/>
        <path d="M363.277,194.338C365.634,196.915 365.738,196.919 366.576,200.482C367.21,203.183 368.066,202.794 368.901,205.407C369.465,207.173 370.497,210.401 378.499,226.5C378.578,226.66 378.823,227.152 379.653,228.411C380.497,229.692 380.677,231.542 380.742,231.777C374.138,238.685 374.083,238.587 367.721,245.687C364.798,248.949 362.731,248.723 357.114,239.742C353.644,234.196 347.605,221.476 346.132,216.589C343.358,207.384 342.024,204.805 344.642,203.847C349.873,201.933 356.41,201.281 363.277,194.338Z" style="fill:rgb(108,170,203);"/>
        <path d="M468.385,154.682C464.425,151.756 463.27,150.584 461.003,145.734C458.729,140.869 459.956,134.538 460.819,132.645C468.941,114.827 489.576,120.066 494.478,130.51C498.642,139.381 495.379,145.677 494.621,147.551C492.645,152.431 482.423,162.848 468.385,154.682Z" style="fill:rgb(9,10,9);"/>
        <path d="M551.417,157.146C549.035,157.525 542.372,159.319 534.474,152.528C526.059,145.291 526.264,126.456 541.57,121.742C555.144,117.561 570.027,129.875 564.094,146.355C561.124,154.603 552.706,156.808 551.417,157.146Z" style="fill:rgb(10,11,10);"/>
        <path d="M408.658,341.315C408.561,340.865 408.133,340.891 408.349,338.53C409.382,327.2 408.855,327.193 408.844,309.494C408.833,291.563 408.673,290.497 412.577,288.712C413.881,288.115 414.01,288.056 430.502,288.281C436.843,288.367 437.914,293.623 442.704,296.148C446.467,298.131 471.857,296.197 476.549,297.281C481.102,298.332 480.676,304.507 479.265,305.018C478.047,305.459 432.64,304.96 427.488,305.304C418.443,305.906 416.981,316.397 416.263,318.414C412.296,329.548 410.503,339.281 409.629,340.806C409.221,341.518 408.742,341.271 408.658,341.315Z" style="fill:rgb(225,193,104);"/>
        <path d="M492.503,458.483C494.973,459.217 494.961,459.159 497.501,459.559C497.53,460.251 497.952,460.219 497.624,462.521C496.799,468.306 500.843,476.078 500.874,476.111C502.315,477.624 502.542,476.34 503.488,474.486C503.918,473.642 504.571,474.131 504.619,474.131C504.758,474.132 504.889,473.879 505,473.963C505.225,474.133 505.391,475.404 505.408,475.532C505.993,480.027 509.108,487.132 510.663,489.394C513.36,493.317 515.354,487.395 516.67,484.581C520.196,477.04 519.037,476.668 519.851,474.713C519.968,474.432 521.25,474.266 521.474,474.535C521.972,475.135 521.864,476.112 522.39,476.687C523.466,477.863 524.58,475.82 524.676,475.644C526.952,471.468 527.016,469.78 527.066,461.5C527.073,460.289 526.531,459.737 526.501,459.636C529.004,459.255 528.976,459.27 531.514,458.994C532.593,460.171 532.623,460.138 532.679,460.265C532.841,460.628 532.563,461.06 532.598,461.457C532.627,461.786 532.786,462.091 532.868,462.412C534.584,469.068 533.384,481.43 530.982,486.715C529.79,489.339 528.767,492.655 527.488,492.673C526.253,492.689 526.612,492.093 525.302,489.611C524.043,487.225 524.735,486.794 524.277,486.706C524.088,486.67 523.652,486.586 522.768,488.569C521.938,498.492 514.941,509.263 514.172,510.271C511.5,513.778 509.223,507.437 506.268,501.628C501.279,491.818 502.791,487.463 502.264,486.615C502.199,486.51 501.405,485.232 500.719,486.638C500.453,487.183 500.492,487.83 500.364,488.423C499.458,492.615 497.913,492.431 497.525,492.385C495.504,492.144 490.297,479.998 491.551,468.501C492.179,462.738 492.828,461.756 492.503,458.483Z" style="fill:rgb(161,219,234);"/>
        <path d="M268.667,217.717C269.193,217.719 269.719,217.721 270.244,217.722C270.322,217.985 270.548,218.187 270.626,218.449C270.834,219.153 270.655,223.242 271.26,225.565C273.039,232.387 276.418,235.292 277.14,235.912C285.732,243.299 290.961,240.355 289.082,244.283C286.366,249.961 286.108,249.795 283.246,255.372C279.485,262.701 277.714,266.996 272.711,264.099C264.115,259.12 264.03,259.287 263.296,258.834C259.079,256.235 255.026,254.501 254.674,254.24C252.94,252.955 250.919,250.918 253.862,245.694C261.145,232.768 260.593,232.503 265.083,224.286C268.386,218.242 268.329,218.211 268.667,217.717Z" style="fill:rgb(109,169,203);"/>
        <path d="M754.108,223.472C754.235,219.071 754.041,219.055 754.3,218.376C755.529,215.169 758.081,220.712 766.692,237.412C772.673,249.01 775.591,251.48 768.652,254.821C766.579,255.819 757.987,261.072 756.627,261.749C752.838,263.634 749.466,266.277 746.879,264.061C746.13,263.419 746.12,263.391 740.716,253.385C735.248,243.264 735.493,242.858 736.161,242.155C736.488,241.811 742.646,240.217 746.379,237.342C753.921,231.532 753.965,224.565 754.108,223.472Z" style="fill:rgb(110,168,203);"/>
        <path d="M317.372,333.367C322.46,328.282 322.45,328.293 322.868,327.83C325.068,325.391 325.436,325.313 328.543,326.372C335.265,328.662 335.408,327.937 342.505,328.113C345.25,328.181 345.496,329.249 345.513,332.5C345.613,350.839 345.851,350.919 345.195,352.367C343.717,355.629 326.361,353.605 319.661,350.211C314.151,347.42 314.075,347.595 313.619,347.313C308.242,343.988 307.998,342.821 309.368,341.393C309.996,340.739 310.005,340.756 317.372,333.367Z" style="fill:rgb(108,170,203);"/>
        <path d="M706.431,332.573C713.923,339.915 713.93,339.889 715.137,340.904C718.519,343.748 711.058,347.564 703.631,350.792C697.064,353.646 680.973,355.546 679.552,352.475C678.914,351.097 679.204,351.016 679.215,333.503C679.217,329.692 678.677,328.279 682.493,328.186C690.224,327.997 690.39,328.548 697.573,325.66C699.736,324.791 700.319,326.662 704.871,331.116C705.64,331.868 705.654,331.819 706.431,332.573Z" style="fill:rgb(108,169,203);"/>
        <path d="M492.973,136.432C492.989,136.609 494.105,141.041 491.575,146.537C487.269,155.889 470.248,159.267 463.79,144.385C459.024,133.404 471.134,119.439 484.534,125.426C492.338,128.913 492.766,135.326 492.973,136.432Z" style="fill:rgb(251,251,249);"/>
        <path d="M562.036,137.539C562.19,142.658 562.013,147.42 555.317,152.254C547.599,157.826 530.315,153.197 532.18,136.466C533.143,127.821 544.798,119.46 556.231,126.922C556.97,127.404 558.742,129.065 559.642,130.403C561.865,133.71 561.722,135.589 562.036,137.539Z" style="fill:rgb(251,252,250);"/>
        <path d="M735.505,236.054C735.185,236.022 729.799,236.201 725.712,232.282C723.561,230.222 721.722,226.834 721.321,223.52C719.995,212.553 727.609,208.758 727.664,208.716C732.844,204.795 740.763,206.289 744.285,208.818C751.351,213.891 751.196,220.02 750.444,224.491C749.665,229.131 745.326,232.979 744.493,233.49C740,236.247 738.077,235.86 735.505,236.054Z" style="fill:rgb(119,171,204);"/>
        <path d="M295.632,234.746C276.953,242.096 267.002,218.105 280.795,208.914C292.271,201.268 305.495,211.237 304.151,223.438C303.758,227.006 301.054,230.131 300.636,230.614C298.278,233.34 298.111,233.141 295.632,234.746Z" style="fill:rgb(117,170,204);"/>
        <path d="M643.137,350.402C642.482,352.252 638.916,362.33 630.229,371.263C624.148,377.517 622.896,372.859 618.325,366.621C617.813,365.922 617.949,365.838 612.267,357.65C608.836,352.707 613.07,352.254 617.167,346.273C620.194,341.854 619.728,339.762 624.396,340.897C625.698,341.213 625.602,341.532 640.512,345.442C644.606,346.515 643.423,347.864 643.137,350.402Z" style="fill:rgb(108,169,203);"/>
        <path d="M401.579,340.857C405.981,340.636 405.701,342.155 406.081,346.555C406.622,352.815 411.41,353.128 413.248,353.919C415.354,354.825 412.098,358.819 409.601,362.569C407.754,365.342 401.075,373.906 400.989,373.994C397.478,377.64 384.681,361.407 381.407,348.523C380.597,345.339 384.006,345.78 387.557,344.688C394.505,342.55 394.594,342.937 401.579,340.857Z" style="fill:rgb(108,169,202);"/>
        <path d="M386.131,234.242C391.992,238.277 392.099,238.084 396.426,239.706C397.897,240.257 398,240.275 400.402,242.466C397.274,254.775 396.618,266.85 394.54,267.579C392.403,268.328 382.178,265.601 372.665,257.319C369.773,254.801 367.993,254.042 371.374,250.381C378.795,242.347 378.572,242.181 386.131,234.242Z" style="fill:rgb(109,169,202);"/>
        <path d="M381.028,324.405C383.329,316.668 387.349,309.627 389.288,307.32C392.866,303.065 397.047,296.255 401.101,301.815C405.293,307.564 404.073,309.437 402.081,313.275C397.955,321.226 399.672,321.696 401.651,331.471C402.268,334.521 401.557,334.858 398.494,335.466C390.903,336.974 381.71,340.815 379.96,339.045C378.762,337.832 379.394,331.521 381.028,324.405Z" style="fill:rgb(110,171,203);"/>
        <path d="M638.643,234.397C643.017,238.582 647.06,244.379 652.08,248.95C657.032,253.459 655.252,254.733 652.731,256.796C643.914,264.01 638.868,265.49 635.591,266.742C629.511,269.066 629.478,266.522 629.107,264.582C627.506,256.22 627.038,255.537 625.162,244.552C625.376,244.057 624.841,244.048 625.052,243.562C625.347,242.879 625.712,243.18 626.05,242.5C626.198,242.201 626.007,241.826 626.076,241.5C626.347,240.217 626.688,240.449 627.38,240.226C633.467,238.27 633.318,237.923 638.643,234.397Z" style="fill:rgb(109,170,202);"/>
        <path d="M535.535,363.772C536.193,363.707 536.842,363.559 537.5,363.494C540.304,363.216 541.275,366.015 544.715,369.326C546.129,370.686 546.723,371.63 544.809,371.993C544.117,372.123 544.172,372.195 543.462,372.361C542.679,372.543 540.642,373.056 540.397,373.118C525.363,376.907 493.686,375.226 486.482,373.577C479.953,372.082 479.027,371.754 479.263,370.439C479.312,370.165 483.545,365.341 483.927,364.906C485.299,363.342 485.615,363.288 495.525,364.252C516.295,366.272 516.313,365.18 535.535,363.772Z" style="fill:rgb(111,172,203);"/>
        <path d="M645.16,337.484C645.057,337.775 645.176,338.115 645.073,338.406C644.117,341.124 641.09,339.13 633.561,337.267C624.226,334.956 624.169,334.986 623.574,334.406C621.297,332.186 629.259,324.724 623.817,314.333C621.337,309.597 619.643,308.461 623.415,302.443C627.212,296.385 629.178,299.778 633.717,305.325C646.336,320.746 645.244,334.065 645.16,337.484Z" style="fill:rgb(108,169,201);"/>
        <path d="M666.406,191.562C659.063,177.914 669.773,169.48 678.499,169.602C684.424,169.684 688.421,174.199 688.587,174.426C699.861,189.816 678.542,207.22 666.406,191.562Z" style="fill:rgb(123,174,204);"/>
        <path d="M351.601,196.806C349.124,197.499 346.584,199 340.745,196.034C338.615,194.953 330.662,188.042 333.844,179.625C336.857,171.657 342.203,169.283 349.46,169.885C357.271,170.533 365.598,181.872 358.058,192.197C355.941,195.096 352.191,196.574 351.601,196.806Z" style="fill:rgb(120,171,202);"/>
        <path d="M715.206,127.364C714.095,129.211 712.769,131.877 708.471,133.41C703.408,135.216 702.057,131.406 697.752,135.75C679.408,154.259 680.243,155.046 678.404,156.362C673.775,159.676 665.498,153.9 673.166,147.287C673.386,147.097 691.937,128.93 692.548,127.525C693.462,125.422 692.119,120.408 694.953,115.758C696.246,113.635 698.947,111.313 702.535,110.803C702.848,110.759 706.499,110.239 706.434,111.499C706.348,113.164 698.916,116.184 700.909,121.344C701.503,122.882 706.293,129.802 712.156,123.203C712.433,122.892 715.667,117.625 715.943,122.41C716.09,124.969 716.013,124.963 715.206,127.364Z" style="fill:rgb(183,186,188);"/>
        <path d="M497.501,459.559C510.663,460.263 510.648,460.712 526.501,459.636C526.531,459.737 527.073,460.289 527.066,461.5C527.016,469.78 526.952,471.468 524.676,475.644C524.58,475.82 523.466,477.863 522.39,476.687C521.864,476.112 521.972,475.135 521.474,474.535C521.25,474.266 519.968,474.432 519.851,474.713C519.037,476.668 520.196,477.04 516.67,484.581C515.354,487.395 513.36,493.317 510.663,489.394C509.108,487.132 505.993,480.027 505.408,475.532C505.391,475.404 505.225,474.133 505,473.963C504.889,473.879 504.758,474.132 504.619,474.131C504.571,474.131 503.918,473.642 503.488,474.486C502.542,476.34 502.315,477.624 500.874,476.111C500.843,476.078 496.799,468.306 497.624,462.521C497.952,460.219 497.53,460.251 497.501,459.559Z" style="fill:rgb(251,253,252);"/>
        <path d="M545.715,292.59C546.639,291.897 546.624,291.887 546.713,291.841C556.608,286.804 556.533,286.698 557.406,286.289C565.676,282.414 565.463,282.027 567.767,280.983C581.173,274.913 582.926,271.5 587.637,274.229C588.198,274.554 592.255,276.904 594.798,278.013C597,278.972 597.617,278.718 597.295,279.523C597.088,280.043 597.037,280.075 591.299,283.144C580.064,289.152 579.972,288.915 568.746,294.962C561.43,298.904 560.022,300.186 558.445,299.806C556.906,299.435 552.844,297.029 552.376,296.752C549.365,294.968 545.99,293.468 545.933,293.411C545.733,293.21 545.914,292.791 545.715,292.59Z" style="fill:rgb(224,186,127);"/>
        <path d="M622.677,292.446C622.413,292.805 622.776,293.082 621.715,293.756C619.927,294.891 619.781,294.575 598.242,306.003C597.231,306.54 586.998,311.969 585.508,312.521C583.148,313.394 579.072,310.182 574.291,307.937C572.346,307.024 572.222,307.155 572.011,306.711C571.313,305.236 572.429,305.562 574.392,304.312C576.518,302.959 604.892,288.51 607.625,286.808C610.365,285.102 611.961,286.651 618.673,290.171C620.527,291.143 620.495,291.144 620.658,291.221C621.159,291.461 621.719,291.582 622.194,291.87C622.408,292 622.463,292.316 622.677,292.446Z" style="fill:rgb(223,185,127);"/>
        <path d="M330.182,174.372C325.968,186.236 330.346,191.152 325.517,190.396C321.933,189.834 309.541,185.711 302.27,178.732C301.178,177.684 298.544,175.955 300.444,174.45C311.372,165.793 311.815,166.354 312.496,166.516C314.06,166.888 313.499,168.101 317.582,169.188C325.044,171.174 325.104,170.778 328.548,171.202C331.811,171.603 330.362,173.651 330.182,174.372Z" style="fill:rgb(111,171,205);"/>
        <path d="M735.718,153.497C735.559,159.333 735.741,159.725 734.497,163.499C734.433,163.694 733.934,166.566 731.484,171.492C727.907,178.682 724.582,172.587 721.308,169.716C717.07,166.001 716.799,165.371 717.866,163.735C720.55,159.619 723.809,155.46 724.142,145.496C724.178,144.405 723.569,141.235 728.488,139.467C731.853,138.257 732.136,139.194 733.676,142.41C735.601,146.43 735.704,153.162 735.718,153.497Z" style="fill:rgb(113,171,204);"/>
        <path d="M529.427,456.076C527.049,456.368 514.069,457.959 499.487,456.641C498.266,456.531 488.037,454.586 486.566,453.422C485.719,452.752 483.629,446.798 486.503,446.874C491.319,447.002 505.185,452.241 530.455,448.227C533.968,447.669 533.955,447.746 537.451,447.06C539.244,446.707 539.905,446.663 539.842,448.488C539.683,453.079 537.772,453.961 537.321,454.17C535.623,454.954 530.066,455.961 529.427,456.076Z" style="fill:rgb(93,137,156);"/>
        <path d="M713.605,170.397C716.415,173.12 716.371,173.13 718.921,176.112C720.41,177.854 724.897,178.861 720.39,182.364C719.373,183.155 712.297,187.565 704.57,189.726C699.341,191.188 697.017,191.487 696.758,188.483C696.366,183.951 697.677,183.797 695.161,174.586C693.784,169.547 699.278,173.282 706.507,170.518C710.211,169.102 710.703,167.698 713.605,170.397Z" style="fill:rgb(111,170,203);"/>
        <path d="M309.248,133.353C307.316,137.407 307.532,137.485 305.456,141.472C304.354,143.588 301.926,142.371 296.406,140.832C292.273,139.68 290.639,139.354 292.38,135.447C296.42,126.376 309.312,115.811 312.516,116.425C314.19,116.746 317.792,121.76 315.321,125.372C312.486,129.517 312.109,129.208 309.248,133.353Z" style="fill:rgb(112,170,203);"/>
        <path d="M605.057,80.588C604.975,79.937 604.459,78.101 605.1,75.395C605.175,75.079 605.61,73.244 606.81,71.706C613.016,63.755 622.587,68.278 624.67,74.431C628.797,86.619 610.173,96.426 605.057,80.588Z" style="fill:rgb(108,167,198);"/>
        <path d="M767.503,271.505C767.902,271.35 768.258,271.097 768.658,270.943C772.719,269.369 781.236,271.868 782.296,278.541C783.88,288.522 774.586,294.021 767.232,289.978C762.508,287.382 757.435,278.281 767.503,271.505Z" style="fill:rgb(137,175,203);"/>
        <path d="M413.671,87.893C412.201,88.462 410.332,90.143 404.368,86.716C404.144,86.588 397.679,81.593 400.482,74.492C404.946,63.186 418.229,67.005 419.882,75.395C421.824,85.25 413.763,87.848 413.671,87.893Z" style="fill:rgb(107,165,197);"/>
        <path d="M254.444,291.176C252.872,291.293 248.603,292.173 244.79,287.294C244.012,286.299 238.166,276.82 248.486,271.475C259.434,265.805 267.74,281.068 259.567,288.574C257.409,290.556 254.901,291.032 254.444,291.176Z" style="fill:rgb(134,177,198);"/>
        <path d="M298.429,168.384C294.376,170.755 293.52,169.294 291.262,163.596C289.517,159.195 287.415,146.967 289.655,145.837C291.378,144.969 294.009,146.043 301.438,147.758C306.198,148.856 304.737,150.597 307.198,156.62C308.653,160.182 308.987,161.153 306.217,163.1C302.346,165.819 302.26,165.641 298.429,168.384Z" style="fill:rgb(110,170,205);"/>
        <path d="M540.835,383.541C540.498,387.965 540.788,391.299 531.534,392.703C519.829,394.478 519.306,394.531 518.591,393.454C518.49,393.302 517.928,379.497 518.761,378.817C519.707,378.043 529.89,378.622 538.436,377.021C538.619,376.986 540.439,376.645 540.736,377.337C541.042,378.051 540.854,382.67 540.835,383.541Z" style="fill:rgb(58,75,81);"/>
        <path d="M506.201,390.507C506.115,393.1 506.37,393.202 505.83,393.793C505.158,394.526 504.943,394.689 493.448,392.766C483.114,391.038 483.811,386.466 483.888,378.529C483.922,375.035 485.812,377.017 490.502,377.479C504.95,378.899 505.714,378.081 506.115,379.66C506.262,380.24 506.207,386.874 506.201,390.507Z" style="fill:rgb(60,79,85);"/>
        <path d="M270.356,302.537C271.203,306.42 271.851,306.933 268.482,310.482C265.185,313.957 264.995,313.715 263.785,314.844C262.705,315.85 262.445,316.61 260.437,318.422C255.289,323.068 255.363,323.748 252.504,323.47C249.417,323.17 250.78,320.984 253.349,316.418C255.693,312.252 264.302,310.571 261.375,304.564C259.738,301.206 256.115,294.999 256.922,293.782C257.296,293.216 261.387,292.134 263.481,288.486C264.488,286.732 265.335,285.841 266.07,287.715C266.547,288.93 267.978,294.961 268.129,295.595C268.974,299.157 269.393,299.003 270.356,302.537Z" style="fill:rgb(94,135,154);"/>
        <path d="M773.321,319.593C773.665,320.406 775.872,323.783 771.5,323.495C768.949,323.326 769.282,322.523 764.56,318.428C762.178,316.362 762.631,315.925 760.165,313.93C757.086,311.44 757.379,311.18 754.705,308.289C752.565,305.976 755.004,303.181 756.164,298.415C757.139,294.406 757.343,294.49 758.414,290.477C758.639,289.632 758.868,287.519 759.298,287.23C760.947,286.123 760.542,287.703 761.711,289.333C765.172,294.154 769.755,292.422 767.65,296.576C763.85,304.077 760.947,306.333 764.761,310.228C767.372,312.893 768.862,313.725 769.271,313.953C771.185,315.022 771.168,315.346 773.321,319.593Z" style="fill:rgb(92,135,156);"/>
        <path d="M802.932,288.458C803.835,298.097 803.458,298.507 804.217,304.528C804.615,307.677 803.571,308.573 801.87,310.833C799.147,314.449 798.876,310.611 798.225,308.573C797.276,305.604 796.814,305.571 797.701,302.564C798.449,300.028 796.838,292.542 794.55,291.385C790.708,289.441 790.585,289.815 786.468,288.586C783.217,287.616 784.6,286.457 785.226,284.412C786.372,280.673 783.489,275.137 787.514,277.469C791.401,279.721 791.455,279.551 795.338,281.802C802.238,285.8 802.282,285.844 802.562,286.472C802.627,286.62 802.589,286.619 802.932,288.458Z" style="fill:rgb(91,132,152);"/>
        <path d="M239.842,284.386C240.336,286.696 241.597,287.466 239.396,288.307C235.416,289.828 229.64,290.123 228.4,293.466C225.051,302.498 227.906,303.003 227.27,306.448C227.145,307.124 225.734,311.955 225.305,312.216C224.019,312.998 221.354,308.122 221.195,307.602C220.615,305.698 221.307,287.69 222.952,285.845C223.317,285.436 232.489,280.247 233.599,279.686C235.697,278.626 235.727,278.706 236.771,277.982C236.961,277.85 238.918,276.493 239.373,276.734C240.065,277.1 239.29,279.612 239.241,280.481C239.141,282.255 239.803,284.23 239.842,284.386Z" style="fill:rgb(93,135,152);"/>
        <path d="M562.341,301.539C563.213,300.707 563.154,300.658 564.257,300.108C566.125,299.178 566.114,299.196 566.272,299.109C570.911,296.537 592.136,285.563 596.739,282.894C600.781,280.55 601.229,280.959 605.523,283.474C607.885,284.858 602.697,286.515 598.649,288.804C598.307,288.998 596.297,290.135 594.312,291.133C579.447,298.609 576.77,300.359 572.47,302.445C569.435,303.917 569.049,305.421 566.658,304.195C566.351,304.038 563.286,302.468 562.848,302.172C562.624,302.021 562.565,301.69 562.341,301.539Z" style="fill:rgb(213,183,137);"/>
        <g>
            <path d="M413.963,128.611C412.231,143.512 413.365,143.573 412.462,154.494C412.333,154.335 402.039,152.032 401.35,151.755C401.392,150.835 401.453,143.492 401.405,142.502C401.171,137.632 400.687,137.427 402.237,135.18C405.233,130.838 410.492,128.508 410.503,128.505C412.358,127.923 412.333,127.849 412.5,127.866C413.045,127.922 413.419,128.556 413.963,128.611Z" style="fill:rgb(109,172,205);"/>
            <path d="M398.354,149.526C399.471,150.403 399.466,150.375 401.35,151.755C402.039,152.032 410.555,152.517 410.841,152.5C410.841,152.5 412.333,154.335 412.462,154.494C412.667,160.993 413.012,167.178 412.853,167.678C412.009,170.331 403.574,163.804 401.994,161.132C398.429,155.102 398.711,153.446 398.354,149.526Z" style="fill:rgb(90,134,153);"/>
            <path d="M413.963,128.611C413.419,128.556 413.045,127.922 412.5,127.866C412.333,127.849 412.358,127.923 410.503,128.505C410.492,128.508 405.233,130.838 402.237,135.18C400.687,137.427 401.171,137.632 401.405,142.502C401.453,143.492 401.392,150.835 401.35,151.755C399.466,150.375 399.471,150.403 398.354,149.526C397.558,141.8 397.952,132.635 406.747,125.861C408.644,124.4 413.19,122.654 413.508,122.639C415.585,122.539 414.421,126.273 413.963,128.611Z" style="fill:rgb(144,189,211);"/>
        </g>
        <g transform="matrix(-1,0,0,1,1024.611391,-0.112199)">
            <path d="M413.963,128.611C412.231,143.512 413.365,143.573 412.462,154.494C412.333,154.335 402.039,152.032 401.35,151.755C401.392,150.835 401.453,143.492 401.405,142.502C401.171,137.632 400.687,137.427 402.237,135.18C405.233,130.838 410.492,128.508 410.503,128.505C412.358,127.923 412.333,127.849 412.5,127.866C413.045,127.922 413.419,128.556 413.963,128.611Z" style="fill:rgb(109,172,205);"/>
            <path d="M398.354,149.526C399.471,150.403 399.466,150.375 401.35,151.755C402.039,152.032 410.555,152.517 410.841,152.5C410.841,152.5 412.333,154.335 412.462,154.494C412.667,160.993 413.012,167.178 412.853,167.678C412.009,170.331 403.574,163.804 401.994,161.132C398.429,155.102 398.711,153.446 398.354,149.526Z" style="fill:rgb(90,134,153);"/>
            <path d="M413.963,128.611C413.419,128.556 413.045,127.922 412.5,127.866C412.333,127.849 412.358,127.923 410.503,128.505C410.492,128.508 405.233,130.838 402.237,135.18C400.687,137.427 401.171,137.632 401.405,142.502C401.453,143.492 401.392,150.835 401.35,151.755C399.466,150.375 399.471,150.403 398.354,149.526C397.558,141.8 397.952,132.635 406.747,125.861C408.644,124.4 413.19,122.654 413.508,122.639C415.585,122.539 414.421,126.273 413.963,128.611Z" style="fill:rgb(144,189,211);"/>
        </g>
        <path d="M668.898,182.53C669.224,180.865 668.965,180.782 669.696,179.613C675.167,170.873 684.825,175.18 686.292,180.562C689.519,192.401 675.039,196.003 670.359,188.592C668.633,185.859 668.833,185.736 668.898,182.53Z" style="fill:rgb(2,11,20);"/>
        <path d="M737.468,230.164C734.656,230.263 733.664,230.574 730.492,228.512C723.204,223.777 727.729,210.569 737.497,212.516C744.086,213.829 748.404,223.768 740.311,229.203C739.247,229.917 739.186,229.715 737.468,230.164Z" style="fill:rgb(2,12,20);"/>
        <path d="M352.498,176.503C353.672,177.707 356.709,180.327 355.778,185.551C354.404,193.261 342.174,195.724 338.514,186.494C335.547,179.012 345.253,170.749 352.498,176.503Z" style="fill:rgb(3,13,21);"/>
        <path d="M290.479,230.222C290.257,230.225 285.17,231.187 281.844,226.274C277.751,220.226 282.677,210.804 291.464,212.669C299.695,214.416 300.075,228.058 291.424,230.116C291.116,230.189 290.788,230.149 290.479,230.222Z" style="fill:rgb(2,12,20);"/>
        <path d="M449.486,293.955C446.218,294.069 446.26,293.859 446.222,293.833C444.615,292.716 447.484,292.033 452.086,288.01C458.725,282.207 458.546,282.039 464.16,275.227C465.147,274.03 470.832,263.452 469.339,271.49C468.003,278.676 468.673,280.892 466.585,287.529C465.046,292.419 465.605,293.163 464.592,293.644C463.383,294.218 450.695,293.978 449.486,293.955Z" style="fill:rgb(93,137,157);"/>
        <path d="M477.475,131.045C479.336,131.193 479.64,130.714 480.139,131.718C480.602,132.652 480.141,132.628 479.723,133.586C479.632,133.794 479.026,135.18 479.671,136.428C481.47,139.91 484.88,137.312 485.504,137.302C488.387,137.256 486.516,146.262 480.545,147.69C471.293,149.903 466.503,138.075 472.79,132.862C474.781,131.212 474.932,131.465 477.475,131.045Z" style="fill:rgb(3,3,3);"/>
        <path d="M546.504,131.072C546.821,131.11 547.139,130.934 547.456,130.972C550.143,131.296 547.889,133.559 548.142,135.549C548.446,137.937 550.772,139.004 552.36,138.186C554.12,137.28 554.08,137.165 554.575,137.217C557.779,137.551 554.476,149.551 545.445,147.772C541.834,147.061 535.728,141.815 540.326,134.385C540.448,134.188 541.095,133.142 542.417,132.37C544.843,130.951 545.496,131.226 546.504,131.072Z" style="fill:rgb(4,4,4);"/>
        <path d="M363.126,341.505C363.171,339.815 363.073,339.843 363.287,338.474C364.537,330.495 376.83,324.063 376.821,329.492C376.817,332.141 375.087,332.613 373.441,333.385C365.911,336.921 368.185,344.473 370.013,346.854C372.862,350.566 377.152,350.731 377.426,350.783C379.775,351.23 380.842,355.052 378.468,355.345C371.599,356.194 367.699,351.698 367.059,350.959C364.117,347.568 363.489,347.646 363.126,341.505Z" style="fill:rgb(103,144,167);"/>
        <path d="M661.002,346.338C656.974,354.32 651.965,355.229 647.501,355.385C647.172,355.396 643.341,356.049 646.399,351.417C647.461,349.809 653.023,351.614 656.196,344.357C658.05,340.117 654.792,334.272 650.504,332.491C650.155,332.346 647.365,331.186 648.188,328.374C648.989,325.64 659.241,330.027 661.153,337.588C662.364,342.381 661.423,344.457 661.002,346.338Z" style="fill:rgb(105,143,163);"/>
        <path d="M768.619,274.691C768.888,274.576 769.119,274.382 769.388,274.267C776.272,271.322 782.686,280.769 777.059,286.057C770.393,292.32 759.234,281.823 768.619,274.691Z" style="fill:rgb(2,11,18);"/>
        <path d="M363.277,194.338C364.15,193.244 364.916,191.41 367.441,193.577C370.581,196.272 369.728,200.303 376.982,215.268C382.06,225.745 383.858,225.041 383.755,227.52C383.702,228.803 381.036,231.481 380.742,231.777C380.677,231.542 380.497,229.692 379.653,228.411C378.823,227.152 378.578,226.66 378.499,226.5C370.497,210.401 369.465,207.173 368.901,205.407C368.066,202.794 367.21,203.183 366.576,200.482C365.738,196.919 365.634,196.915 363.277,194.338Z" style="fill:rgb(172,205,216);"/>
        <path d="M258.289,276.671C259.711,279.419 260.083,279.455 259.423,282.483C257.827,289.812 247.061,289.868 246.054,281.544C245.343,275.671 252.381,270.629 257.366,275.636C257.692,275.964 257.963,276.344 258.289,276.671Z" style="fill:rgb(2,10,17);"/>
        <path d="M509.29,396.498C509.444,387.136 509.379,386.257 509.415,382.499C509.423,381.674 508.386,378.094 513.465,378.724C515.7,379.002 515.275,380.329 515.299,389.502C515.327,400.329 516.063,404.974 512.48,405.059C508.573,405.151 509.293,396.702 509.29,396.498Z" style="fill:rgb(129,183,212);"/>
        <path d="M661.611,194.388C660.389,195.783 659.708,195.455 657.57,201.52C657.245,202.441 651.314,216.374 650.167,218.336C647.627,222.68 645.162,227.726 644.925,228.733C644.866,228.982 645.025,229.299 644.866,229.5C644.415,230.068 643.654,230.335 643.204,230.904C640.28,227.94 640.541,227.219 642.915,223.792C643.937,222.319 645.329,220.33 647.724,215.614C654.789,201.699 656.058,189.382 660.536,193.461C660.62,193.537 660.616,193.529 661.611,194.388Z" style="fill:rgb(173,205,219);"/>
        <path d="M368.553,93.446C373.081,97.83 376.739,100.766 372.507,100.592C363.69,100.232 358.542,101.465 358.462,93.5C358.379,85.252 358.149,85.143 358.67,84.665C359.497,83.908 360.052,84.866 364.611,89.386C366.63,91.388 366.524,91.456 368.553,93.446Z" style="fill:rgb(239,235,214);"/>
        <path d="M677.508,84.773C684.523,84.648 684.491,84.712 691.501,84.69C700.741,84.661 701.413,84.645 702.676,85.013C708.361,86.67 709.377,94.992 706.467,94.871C705.077,94.813 704.966,92.366 704.625,91.449C702.898,86.814 699.117,87.454 689.5,87.472C676.796,87.497 674.938,86.939 673.288,93.419C672.799,95.339 670.147,95.806 670.348,92.499C670.782,85.367 677.175,84.846 677.508,84.773Z" style="fill:rgb(105,135,149);"/>
        <path d="M327.501,125.76C335.167,125.756 342.833,125.752 350.499,125.748C365.296,125.758 367.071,125.477 366.956,127.555C366.886,128.833 364.747,128.924 364.523,128.933C362.901,129.002 330.461,128.929 327.499,128.922C322.149,128.911 324.052,126.527 324.292,126.298C325.002,125.62 326.507,125.78 327.501,125.76Z" style="fill:rgb(8,5,0);"/>
        <path d="M347.499,118.947C328.662,118.914 325.945,118.952 325.413,118.843C323.731,118.501 322.62,115.909 326.511,115.8C327.306,115.777 346.855,115.782 352.499,115.794C365.432,115.822 367.184,115.454 366.995,117.591C366.857,119.157 365.861,118.942 347.499,118.947Z" style="fill:rgb(13,12,8);"/>
        <path d="M343.497,136.039C363.245,136.043 364.938,136.038 365.6,136.229C366.956,136.621 366.898,138.135 366.549,138.54C366.035,139.135 363.748,139.13 363.5,139.13C351.398,139.106 327.07,139.148 326.515,139.108C322.704,138.83 323.833,136.389 325.56,135.996C326.525,135.775 342.063,136.017 343.497,136.039Z" style="fill:rgb(9,7,2);"/>
        <path d="M671.748,127.496C671.728,130.233 672.86,134.173 666.501,133.49C663.435,133.161 663.756,131.943 663.839,121.509C663.867,117.962 663.514,116.316 668.499,116.439C672.324,116.533 671.695,118.314 671.748,127.496Z" style="fill:rgb(188,192,195);"/>
        <path d="M434.983,224.861C435.459,225.717 438.447,227.866 431.425,235.432C429.217,237.81 429.469,238.15 426.487,239.477C425.051,240.116 421.419,243.333 410.49,242.714C409.813,242.676 409.14,242.542 408.463,242.562C407.946,242.578 408.008,242.822 407.5,242.804C406.776,242.779 406.851,242.506 406.125,242.481C406.401,241.421 406.352,239.586 408.59,238.81C409.443,238.515 409.459,238.677 413.498,238.737C429.376,238.973 434.601,225.504 434.983,224.861Z" style="fill:rgb(169,208,222);"/>
        <path d="M505.584,171.202C518.88,173.888 522.956,170.117 529.296,166.054C531.502,164.64 532.417,166.817 531.125,168.181C530.217,169.139 523.893,173.855 518.523,174.657C505.525,176.597 499.751,172.349 494.479,168.525C491.916,166.665 493.448,164.739 495.395,165.713C495.901,165.966 498.416,168.005 500.67,169.125C503.061,170.312 503.081,170.22 505.584,171.202Z" style="fill:rgb(9,10,9);"/>
        <path d="M345.585,189.164C345.198,188.987 344.776,188.895 344.39,188.718C341.977,187.612 339.855,183.68 341.817,180.693C346.429,173.675 355.6,180.261 352.262,186.383C350.118,190.318 346.474,189.261 345.585,189.164Z" style="fill:rgb(98,140,161);"/>
        <path d="M292.424,226.382C292.419,226.384 291.078,227.396 288.526,227.188C282.191,226.67 281.374,216.322 288.497,215.472C294.805,214.719 296.278,222.331 293.474,225.475C293.167,225.821 292.732,226.037 292.424,226.382Z" style="fill:rgb(95,138,156);"/>
        <path d="M737.607,226.82C736.837,226.935 733.527,228.321 730.777,224.306C726.58,218.178 737.593,210.634 741.281,219.585C742.059,221.474 741.455,223.151 741.351,223.441C740.65,225.386 737.972,226.648 737.607,226.82Z" style="fill:rgb(98,137,155);"/>
        <path d="M671.965,183.503C672.378,181.607 672.346,181.61 672.412,181.456C673.834,178.118 678.175,176.55 681.196,178.895C687.96,184.148 680.01,192.363 674.595,188.363C672.244,186.625 672.544,186.334 671.965,183.503Z" style="fill:rgb(101,142,165);"/>
        <path d="M759.634,269.739C757.272,270.944 756.828,270.772 755.333,268.593C754.646,267.591 754.264,267.671 754.501,266.5C754.65,265.761 755.126,266.228 762.655,261.767C769.509,257.707 769.699,257.74 770.381,257.861C770.575,257.895 774.922,260.74 768.468,264.449C763.996,267.02 763.943,266.897 759.634,269.739Z" style="fill:rgb(132,175,203);"/>
        <path d="M255.411,263.643C254.993,263.352 252.618,262.32 253.048,260.397C254.021,256.04 258.986,259.879 259.637,260.284C266.357,264.467 269.886,265.759 270.069,265.933C270.988,266.809 269.473,269.138 269.319,269.374C267.818,271.678 262.969,268.599 255.411,263.643Z" style="fill:rgb(130,176,201);"/>
        <path d="M616.149,98.513C616.157,100.108 616.237,116.935 616.054,118.444C615.743,121.011 613.463,120.638 613.153,118.571C613.002,117.57 613.101,98.25 613.11,96.483C613.112,96.158 613.129,92.763 613.417,92.431C613.979,91.784 615.425,91.868 615.674,92.326C616.275,93.434 616.134,95.673 616.149,98.513Z" style="fill:rgb(89,119,132);"/>
        <path d="M348.64,338.501C348.574,334.763 348.041,331.799 350.491,331.92C352.517,332.021 353.058,332.995 353.287,333.555C353.46,333.977 353.453,347.326 353.426,347.493C353.043,349.904 350.078,349.92 349.389,349.702C348.444,349.403 348.571,347.953 348.64,338.501Z" style="fill:rgb(102,144,168);"/>
        <path d="M673.564,331.944C674.669,332.141 676.209,331.189 676.155,334.49C675.944,347.354 676.745,349.251 674.496,349.466C671.766,349.726 671.256,349.225 671.348,346.495C671.653,337.497 671.294,336.197 671.291,334.492C671.286,331.93 673.221,332.087 673.564,331.944Z" style="fill:rgb(104,144,167);"/>
        <path d="M344.501,148.706C324.825,148.736 324.445,148.759 324.015,147.715C323.187,145.702 326.245,145.675 326.503,145.673C328.339,145.657 348.024,145.488 349.449,145.726C351.188,146.017 351.037,147.746 350.337,148.29C349.623,148.845 346.789,148.71 344.501,148.706Z" style="fill:rgb(5,4,2);"/>
        <path d="M408.703,116.499C408.694,114.661 408.602,95.131 408.7,93.518C408.863,90.829 410.984,91.803 411.324,92.588C411.724,93.513 411.486,118.199 411.462,118.492C411.316,120.258 409.556,120.709 408.997,120.017C408.535,119.447 408.771,119.37 408.703,116.499Z" style="fill:rgb(95,134,152);"/>
        <path d="M466.025,384.54C467.051,395.391 472.771,391.768 474.075,394.711C476.015,399.087 472.628,397.767 470.739,397.036C465.073,394.845 462.938,392.766 462.409,384.501C462.193,381.125 465.265,381.175 465.58,381.414C465.869,381.633 466.012,384.288 466.025,384.54Z" style="fill:rgb(95,140,160);"/>
        <path d="M561.888,386.546C561.748,387.793 562.129,394.702 553.467,397.376C549.115,398.72 550.279,394.536 552.555,393.654C561.609,390.145 557.692,384.185 558.827,381.678C559.655,379.848 561.571,382.127 561.724,382.308C562.598,383.348 561.946,386.019 561.888,386.546Z" style="fill:rgb(112,151,171);"/>
        <path d="M566.764,307.363C566.804,308.114 567.207,315.74 566.732,316.763C566.438,317.398 560.915,315.205 560.53,312.496C560.494,312.243 560.315,304.839 560.558,304.554C561.27,303.718 561.452,304.125 562.427,304.668C564.339,305.734 564.415,305.532 566.203,306.751C566.432,306.907 566.535,307.207 566.764,307.363Z" style="fill:rgb(184,152,105);"/>
        <path d="M556.085,275.539C555.93,273.945 554.257,264.656 557.959,271.035C559.535,273.752 563.695,278.962 563.703,279.465C563.728,280.951 558.132,283.169 557.806,283.061C556.811,282.731 556.147,276.153 556.085,275.539Z" style="fill:rgb(95,129,144);"/>
        <path d="M650.611,346.693C648.804,347.291 648.81,347.749 647.626,347.241C647.221,347.067 645.381,344.489 646.575,342.549C646.815,342.158 647.138,341.821 647.379,341.43C648.602,339.445 647.891,335.633 649.512,335.569C651.786,335.479 656.6,341.65 651.296,346.238C651.089,346.418 650.818,346.514 650.611,346.693Z" style="fill:rgb(109,143,161);"/>
        <path d="M374.351,346.761C368.458,342.218 372.649,336.691 374.605,335.811C377.164,334.66 375.138,338.693 377.979,342.158C379.111,343.538 378.685,343.719 378.181,345.418C377.444,347.901 376.696,347.867 374.351,346.761Z" style="fill:rgb(103,145,168);"/>
        <path d="M768.159,280.452C768.272,280.124 769.239,277.305 770.635,276.882C770.978,276.778 773.142,276.122 774.953,278.066C778.764,282.156 773.258,286.746 769.81,284.1C767.722,282.497 768.178,280.584 768.159,280.452Z" style="fill:rgb(94,130,147);"/>
        <path d="M483.35,391.642C484.222,392.352 484.329,392.17 485.181,392.891C486.845,394.299 485.525,394.73 483.428,395.301C480.088,396.21 480.103,396.707 478.61,396.227C477.691,395.932 474.753,391.467 477.441,389.434C479.778,387.667 480.771,386.577 481.914,389.289C482.458,390.58 482.519,390.528 483.35,391.642Z" style="fill:rgb(102,148,167);"/>
        <g transform="matrix(-1,0,0,1,1025.918476,0)">
            <path d="M483.35,391.642C484.222,392.352 484.329,392.17 485.181,392.891C486.845,394.299 485.525,394.73 483.428,395.301C480.088,396.21 480.103,396.707 478.61,396.227C477.691,395.932 474.753,391.467 477.441,389.434C479.778,387.667 480.771,386.577 481.914,389.289C482.458,390.58 482.519,390.528 483.35,391.642Z" style="fill:rgb(102,148,167);"/>
        </g>
        <path d="M638.643,234.397C633.318,237.923 633.467,238.27 627.38,240.226C626.688,240.449 626.347,240.217 626.076,241.5C626.007,241.826 626.198,242.201 626.05,242.5C625.712,243.18 625.347,242.879 625.052,243.562C624.841,244.048 625.376,244.057 625.162,244.552C624.862,242.523 624.829,242.552 624.432,240.519C623.748,237.014 627.658,237.578 632.389,234.333C636.457,231.543 637.004,232.596 638.643,234.397Z" style="fill:rgb(160,198,215);"/>
        <path d="M255.345,277.664C260.476,283.877 249.891,287.928 249.004,281.561C248.512,278.029 252.154,275.824 254.311,276.932C254.687,277.125 254.969,277.472 255.345,277.664Z" style="fill:rgb(97,134,150);"/>
        <path d="M386.131,234.242C389.067,231.33 389.655,232.886 393.241,234.957C398.444,237.962 401.723,236.604 400.402,242.466C398,240.275 397.897,240.257 396.426,239.706C392.099,238.084 391.992,238.277 386.131,234.242Z" style="fill:rgb(165,202,217);"/>
        <path d="M664.872,339.448C664.392,337.226 663.833,335.513 665.427,335.254C668.691,334.723 668.312,336.201 668.384,339.498C668.488,344.213 668.715,346.177 666.503,346.113C664.006,346.042 664.992,344.785 664.872,339.448Z" style="fill:rgb(104,138,155);"/>
        <path d="M360.024,338.385C359.859,341.476 359.968,341.451 360.246,344.53C360.413,346.378 356.837,346.823 356.509,344.498C356.461,344.154 356.448,337.174 356.582,336.52C356.633,336.267 356.952,334.7 359.582,335.308C360.978,335.631 360.275,337.396 360.024,338.385Z" style="fill:rgb(92,127,144);"/>
        <path d="M677.559,149.425C678.56,150.822 678.917,150.808 678.569,152.504C677.739,156.556 671.39,155.489 672.419,151.487C672.597,150.794 673.638,149.503 674.392,149.131C676.137,148.272 677.521,149.413 677.559,149.425Z" style="fill:rgb(2,2,2);"/>
        <path d="M608.514,326.525C608.981,326.826 609.449,327.126 609.916,327.427C609.879,332.333 609.444,332.521 610.407,334.65L610.838,336.909C609.122,337.931 608.593,339.149 607.743,337.364C607.669,337.208 607.467,329.893 607.504,328.501C607.552,326.68 608.24,326.83 608.514,326.525Z" style="fill:rgb(188,159,119);"/>
        <path d="M670.499,99.342C668.311,99.211 667.574,99.936 667.514,98.497C667.454,97.065 668.061,97.351 669.486,97.35C674.845,97.347 675.274,97.068 675.23,98.128C675.196,98.964 675.299,99.27 674.463,99.321C674.146,99.34 674.169,99.323 670.499,99.342Z" style="fill:rgb(100,109,111);"/>
        <g transform="matrix(1,0,0,1,36.000557,0)">
            <path d="M670.499,99.342C668.311,99.211 667.574,99.936 667.514,98.497C667.454,97.065 668.061,97.351 669.486,97.35C674.845,97.347 675.274,97.068 675.23,98.128C675.196,98.964 675.299,99.27 674.463,99.321C674.146,99.34 674.169,99.323 670.499,99.342Z" style="fill:rgb(100,109,111);"/>
        </g>
        <path d="M674.652,151.573C674.792,151.203 675.826,151.016 676.114,151.63C676.14,151.684 676.285,151.994 676.151,152.372C675.847,153.224 674.243,152.656 674.652,151.573Z" style="fill:rgb(98,98,97);"/>
        <path d="M268.667,217.717C269.951,216.728 269.933,216.57 270.027,216.67C270.272,216.931 269.999,217.462 270.244,217.722C269.719,217.721 269.193,217.719 268.667,217.717Z" style="fill:rgb(76,94,105);"/>
        <path d="M424.234,114.359C423.744,114.889 423.962,115.71 423.5,115.152C423.112,114.684 423.366,114.41 423.409,114.363C423.746,113.999 423.911,114.708 424.234,114.359Z" style="fill:rgb(120,176,207);"/>
    </g>
</svg>
